<?xml version="1.0" encoding="UTF-8" standalone="no"?>
<svg
   viewBox="0 0 24 24"
   width="32"
   height="32"
   version="1.1"
   id="svg5070"
   sodipodi:docname="settings-3-fill.svg"
   inkscape:version="1.2 (dc2aedaf03, 2022-05-15)"
   xmlns:inkscape="http://www.inkscape.org/namespaces/inkscape"
   xmlns:sodipodi="http://sodipodi.sourceforge.net/DTD/sodipodi-0.dtd"
   xmlns="http://www.w3.org/2000/svg"
   xmlns:svg="http://www.w3.org/2000/svg">
  <defs
     id="defs5074" />
  <sodipodi:namedview
     id="namedview5072"
     pagecolor="#505050"
     bordercolor="#eeeeee"
     borderopacity="1"
     inkscape:showpageshadow="0"
     inkscape:pageopacity="0"
     inkscape:pagecheckerboard="0"
     inkscape:deskcolor="#505050"
     showgrid="false"
     inkscape:zoom="7.375"
     inkscape:cx="16"
     inkscape:cy="16.067797"
     inkscape:window-width="1920"
     inkscape:window-height="1040"
     inkscape:window-x="0"
     inkscape:window-y="0"
     inkscape:window-maximized="1"
     inkscape:current-layer="svg5070" />
  <path
     fill="none"
     d="M0 0h24v24H0z"
     id="path5066" />
  <path
     d="M9.954 2.21a9.99 9.99 0 0 1 4.091-.002A3.993 3.993 0 0 0 16 5.07a3.993 3.993 0 0 0 3.457.261A9.99 9.99 0 0 1 21.5 8.876 3.993 3.993 0 0 0 20 12c0 1.264.586 2.391 1.502 3.124a10.043 10.043 0 0 1-2.046 3.543 3.993 3.993 0 0 0-3.456.261 3.993 3.993 0 0 0-1.954 2.86 9.99 9.99 0 0 1-4.091.004A3.993 3.993 0 0 0 8 18.927a3.993 3.993 0 0 0-3.457-.26A9.99 9.99 0 0 1 2.5 15.121 3.993 3.993 0 0 0 4 11.999a3.993 3.993 0 0 0-1.502-3.124 10.043 10.043 0 0 1 2.046-3.543A3.993 3.993 0 0 0 8 5.071a3.993 3.993 0 0 0 1.954-2.86zM12 15a3 3 0 1 0 0-6 3 3 0 0 0 0 6z"
     id="path5068"
     style="fill:#ffffff" />
</svg>
